# xmcd
#
# Track frame offsets:
#   150
#   13851
#   29478
#   30209
#   44739
#   63038
#   83556
#   102900
#   116438
#   133229
#   148867
#   169266
#   184974
#   196154
#   212286
#
# Disc length: 3029 seconds
#
# Revision: 0
# Processed by: cddbd v1.5.1PL2 Copyright (c) Steve Scherf et al.
# Submitted via: uFREEDB ActiveX Control 1.5
#
DISCID=cc0bd30f
DTITLE=Desconhecido 15 - denize
DYEAR=2005
DGENRE=Alternative
TTITLE0=oi 1
TTITLE1=oi 2
TTITLE2=oi 3
TTITLE3=oi 4
TTITLE4=oi 5
TTITLE5=oi 6
TTITLE6=oi 7
TTITLE7=oi 8
TTITLE8=oi 9
TTITLE9=oi 10
TTITLE10=oi 11
TTITLE11=oi 12
TTITLE12=oi 13
TTITLE13=oi 14
TTITLE14=oi 15
EXTD=
EXTT0=
EXTT1=
EXTT2=
EXTT3=
EXTT4=
EXTT5=
EXTT6=
EXTT7=
EXTT8=
EXTT9=
EXTT10=
EXTT11=
EXTT12=
EXTT13=
EXTT14=
PLAYORDER=
